<svg width="83" height="63" viewBox="0 0 83 63" fill="none" xmlns="http://www.w3.org/2000/svg">
<path d="M63.1518 17.1125C59.481 17.1125 56.3332 17.1495 53.2131 17.0708C52.8001 17.0708 52.3183 16.5343 52.0201 16.1457C51.2033 15.0355 50.4233 13.8884 49.7258 12.7089C46.9727 8.23586 40.0211 8.48565 37.3002 11.1963C34.9968 13.4088 32.8917 15.8219 31.0093 18.4076C26.7925 24.421 22.1076 29.9717 16.5372 34.7454C13.1371 37.6318 10.4299 41.0362 9.56726 45.537C8.60367 50.5697 11.8019 54.1777 16.8492 53.5948C22.5252 52.938 28.2149 52.2071 33.7945 51.0184C38.5803 50.0287 43.5131 50.0052 48.308 50.949C54.6309 52.0869 61.0456 52.7252 67.4099 53.6226C69.2958 53.8909 70.6218 53.0953 71.613 51.6197C73.1685 49.3624 73.3749 46.8877 72.7142 44.3019C71.7916 40.7121 69.5621 37.6041 66.4693 35.5965C65.1089 34.777 63.5527 34.3468 61.9679 34.3522C55.255 34.2273 48.5374 34.2689 41.8244 34.3522C40.2276 34.3522 39.6816 33.8434 39.7642 32.2522C39.8054 30.7009 39.7549 29.1486 39.6128 27.6034C39.5347 26.4285 39.8972 25.9104 41.1774 25.915C49.1018 25.9428 57.0261 25.8873 64.9505 25.8827C67.5121 25.8593 70.0083 26.6976 72.0443 28.2649C78.4131 33.1727 82.3409 39.4728 82.1711 47.8174C82.0151 55.459 76.4997 62.217 69.695 62.7628C66.506 63.0173 63.216 62.5362 60.0132 62.0921C54.1858 61.278 48.4043 60.1401 42.5769 59.3676C40.7828 59.1317 38.8786 59.5295 37.0707 59.8302C31.0414 60.7831 25.0443 61.9626 18.9966 62.7767C11.5541 63.7712 5.17148 60.6582 2.05588 54.705C-0.646742 49.5474 -0.151184 44.3204 2.05588 39.1305C3.98612 34.688 6.9385 30.773 10.6685 27.7098C15.5461 23.5745 19.5702 18.7037 23.3557 13.5553C25.9253 10.063 28.7518 6.61689 32.0004 3.80913C38.461 -1.85727 51.2217 -1.68149 57.2968 7.60678C59.2561 10.5996 61.0594 13.6895 63.1518 17.1125Z" fill="#00D7C5"/>
</svg>
