<svg width="51" height="39" viewBox="0 0 51 39" fill="none" xmlns="http://www.w3.org/2000/svg">
<path d="M38.8645 10.5664C36.5979 10.5664 34.6542 10.5892 32.7276 10.5407C32.4726 10.5407 32.1751 10.2094 31.991 9.96945C31.4867 9.28396 31.005 8.57563 30.5744 7.84731C28.8744 5.08538 24.582 5.23961 22.9019 6.91333C21.4797 8.27947 20.1798 9.76952 19.0175 11.3661C16.4138 15.0792 13.521 18.5066 10.0815 21.4541C7.98202 23.2364 6.3104 25.3385 5.77775 28.1176C5.18277 31.2251 7.15754 33.453 10.2741 33.0931C13.7788 32.6875 17.2921 32.2362 20.7373 31.5022C23.6924 30.8911 26.7382 30.8766 29.6989 31.4593C33.6031 32.162 37.564 32.5561 41.4937 33.1102C42.6582 33.2759 43.477 32.7846 44.089 31.8735C45.0494 30.4797 45.1769 28.9516 44.7689 27.355C44.1993 25.1384 42.8226 23.2193 40.9129 21.9797C40.0729 21.4737 39.112 21.2081 38.1335 21.2114C33.9884 21.1343 29.8405 21.16 25.6955 21.2114C24.7095 21.2114 24.3724 20.8972 24.4234 19.9147C24.4488 18.9568 24.4176 17.9983 24.3299 17.0442C24.2817 16.3187 24.5055 15.9988 25.296 16.0017C30.189 16.0188 35.0821 15.9846 39.9751 15.9817C41.5568 15.9673 43.0981 16.4849 44.3553 17.4526C48.2878 20.483 50.7131 24.3732 50.6083 29.5257C50.5119 34.2441 47.1064 38.417 42.9047 38.754C40.9356 38.9111 38.9041 38.6141 36.9265 38.3399C33.3283 37.8372 29.7584 37.1346 26.1602 36.6576C25.0524 36.5119 23.8766 36.7575 22.7603 36.9432C19.0374 37.5316 15.3343 38.2599 11.6001 38.7626C7.00455 39.3767 3.0635 37.4545 1.13972 33.7786C-0.529062 30.5939 -0.223071 27.3664 1.13972 24.1618C2.33158 21.4187 4.15458 19.0013 6.45773 17.1099C9.46948 14.5565 11.9542 11.5489 14.2917 8.36999C15.8783 6.21357 17.6236 4.08572 19.6295 2.35202C23.6187 -1.1468 31.498 -1.03827 35.2492 4.69694C36.459 6.54489 37.5725 8.45282 38.8645 10.5664Z" fill="white"/>
</svg>
